<svg version="1.1" id="Layer_1" xmlns="http://www.w3.org/2000/svg" xmlns:xlink="http://www.w3.org/1999/xlink" x="0px" y="0px"
	 width="100%" viewBox="0 0 4081 1863" enable-background="new 0 0 4081 1863" xml:space="preserve">
<path fill="#FFFFFF" opacity="1.000000" stroke="none" 
	d="
M2478.000000,1866.000000 
	C1652.000122,1866.000000 827.000305,1866.000000 2.000332,1866.000000 
	C2.000221,1244.666870 2.000221,623.333862 2.000111,2.000582 
	C1362.666138,2.000388 2723.332275,2.000388 4083.999023,2.000194 
	C4083.999268,623.332703 4083.999268,1244.665405 4083.999512,1865.999023 
	C3549.000000,1866.000000 3014.000000,1866.000000 2478.000000,1866.000000 
M883.539490,863.950684 
	C864.716187,933.303467 845.892883,1002.656311 826.796997,1073.013306 
	C832.898254,1073.525513 837.505676,1073.677612 842.041321,1074.329346 
	C885.417786,1080.560913 929.112915,1083.784668 972.819702,1085.060547 
	C1015.318665,1086.301270 1057.902832,1086.341309 1100.408203,1082.335571 
	C1135.502441,1079.028442 1170.286621,1074.315552 1204.431396,1065.545654 
	C1241.002808,1056.152588 1276.049805,1042.990112 1307.178345,1021.058167 
	C1341.077393,997.174438 1364.634277,966.164978 1373.345337,923.446167 
	C1380.044922,898.756897 1386.811035,874.085449 1393.428223,849.374146 
	C1403.310303,812.469849 1413.291260,775.589783 1422.800537,738.588989 
	C1426.185913,725.416321 1428.803711,711.904419 1427.428711,698.181396 
	C1424.874756,672.691406 1414.408691,650.240601 1399.850342,629.523132 
	C1384.821777,608.136719 1366.640381,589.596191 1346.869019,572.688232 
	C1306.454834,538.126953 1261.570435,510.199402 1214.610596,485.564911 
	C1172.162476,463.297180 1128.487305,443.689331 1083.722778,426.492188 
	C991.016235,390.877228 895.866394,364.011871 798.323669,345.322113 
	C734.356445,333.065613 669.953369,324.541962 605.016235,319.878174 
	C601.768005,319.644897 598.488403,319.848175 594.620117,319.848175 
	C575.439758,390.403381 556.401550,460.435516 537.316895,530.638611 
	C539.675720,531.155823 540.628052,531.473755 541.601196,531.562073 
	C566.717957,533.841919 591.993347,535.010498 616.920837,538.598022 
	C660.592407,544.883301 704.210266,551.804199 747.563538,559.981384 
	C825.066772,574.599915 900.935852,595.548157 975.504150,621.305542 
	C1041.003052,643.930237 1104.859741,670.278503 1166.158569,702.711365 
	C1205.368408,723.456970 1243.083496,746.545166 1278.014160,773.944824 
	C1299.239136,790.593628 1319.375488,808.481018 1335.013550,830.849915 
	C1329.552124,833.249084 1324.176025,835.869629 1318.615723,838.012634 
	C1271.107910,856.322327 1221.449585,864.677124 1171.056641,869.313477 
	C1154.539185,870.833130 1137.930908,871.662903 1121.345825,872.084961 
	C1092.747925,872.812866 1064.116211,873.803223 1035.534912,873.134277 
	C1008.371521,872.498474 981.223938,870.250122 954.126526,868.017639 
	C931.337524,866.140137 908.630615,863.265747 886.349976,859.518127 
	C904.590454,790.007812 924.350464,720.897156 942.623718,650.985535 
	C939.932983,650.525391 938.651489,650.226440 937.353027,650.095886 
	C904.695923,646.811279 872.084106,642.913086 839.363464,640.477173 
	C813.860901,638.578552 788.228210,638.050415 762.643250,637.731140 
	C730.740845,637.332947 698.889587,638.681641 667.062256,641.443542 
	C637.906067,643.973694 609.001099,647.864563 580.491394,654.316406 
	C543.368042,662.717651 507.342896,674.345703 474.663879,694.445312 
	C434.745667,718.997375 406.506775,752.382019 396.414886,801.061768 
	C387.217682,834.703979 377.886078,868.310242 368.863098,901.999146 
	C360.706726,932.452393 352.461456,962.892761 345.044189,993.529724 
	C338.160309,1021.963684 343.906830,1048.792480 357.723907,1074.193970 
	C374.369568,1104.795898 398.078003,1129.337280 424.222473,1151.765747 
	C464.834351,1186.605225 510.144836,1214.379395 557.348633,1239.125244 
	C618.072998,1270.958862 681.372498,1296.827515 746.235229,1318.917358 
	C806.345947,1339.389038 867.468872,1356.270264 929.515503,1369.735352 
	C981.731812,1381.067139 1034.311401,1390.358643 1087.461426,1396.148560 
	C1110.520752,1398.660400 1133.588257,1401.113892 1156.679932,1403.300293 
	C1162.859253,1403.885376 1169.140991,1403.388794 1175.223999,1403.388794 
	C1194.348877,1333.020386 1213.379883,1262.997437 1232.502319,1192.638184 
	C1220.503052,1191.659180 1209.588013,1190.927490 1198.706543,1189.852905 
	C1155.133057,1185.550293 1111.791382,1179.674194 1068.603271,1172.325195 
	C985.283569,1158.146973 903.475769,1137.995361 823.117676,1111.945068 
	C748.122559,1087.633545 675.065430,1058.567505 605.264282,1021.678223 
	C554.853027,995.036438 506.699249,964.971985 464.452271,926.378540 
	C453.234802,916.131287 443.812653,903.918579 435.063232,892.106079 
	C449.394012,886.807495 463.506927,880.796326 478.093933,876.335632 
	C536.323486,858.529419 596.430969,852.649414 656.886169,850.529724 
	C687.429443,849.458862 718.081909,850.797058 748.663147,851.748962 
	C770.873169,852.440247 793.075989,853.928406 815.229431,855.714233 
	C838.028137,857.552124 860.762939,860.181946 883.539490,863.950684 
M1918.816650,1137.713135 
	C1883.379639,1266.582764 1847.942627,1395.452271 1812.349487,1524.889648 
	C1849.918091,1524.889648 1886.440796,1524.889648 1922.980347,1524.889648 
	C1978.583374,1322.180542 2034.053833,1119.955078 2089.410889,918.142761 
	C2127.321533,918.142761 2164.091553,918.142761 2201.825928,918.142761 
	C2177.008057,1010.211609 2152.437500,1101.361572 2127.699463,1193.133789 
	C2165.124756,1193.133789 2201.083984,1193.133789 2238.280762,1193.133789 
	C2267.991211,1083.021240 2297.759277,972.695557 2327.792236,861.387573 
	C2311.788818,861.387573 2297.160156,861.387573 2282.531738,861.387573 
	C2267.866455,861.387573 2253.200928,861.387573 2238.535645,861.387573 
	C2223.536865,861.387573 2208.538086,861.387573 2193.539307,861.387573 
	C2178.873779,861.387573 2164.208252,861.429688 2149.542969,861.375671 
	C2135.080322,861.322388 2120.602295,861.612915 2106.130859,861.191528 
	C2106.130859,858.844055 2105.913330,857.817627 2106.162109,856.920532 
	C2119.643066,808.306335 2132.716553,759.571533 2146.943604,711.175964 
	C2151.400635,696.013855 2158.072021,681.299561 2165.366699,667.229004 
	C2173.429688,651.676758 2185.240967,638.870850 2201.307861,630.916687 
	C2214.736816,624.268555 2228.822021,621.007935 2243.715820,625.476379 
	C2257.658691,629.659485 2263.198242,640.343872 2258.650635,654.085449 
	C2257.505859,657.545288 2255.950195,660.875854 2254.478271,664.219604 
	C2250.012451,674.363831 2247.912842,684.778137 2247.368164,696.031494 
	C2246.321289,717.658752 2263.838623,737.776611 2281.649658,743.881958 
	C2310.913818,753.913513 2342.780518,744.032349 2362.058105,719.641724 
	C2383.933594,691.964417 2379.364502,647.403442 2358.748535,621.010254 
	C2342.724854,600.496094 2321.302002,588.552063 2296.543213,582.035217 
	C2263.462646,573.327942 2230.071045,573.605469 2196.861084,580.467834 
	C2161.206543,587.835327 2130.338867,604.623291 2104.024658,630.054138 
	C2080.494141,652.794861 2062.723633,679.516663 2048.002686,708.405090 
	C2029.985229,743.762573 2016.970459,781.068848 2006.373047,819.231140 
	C1992.250366,870.089050 1978.293213,920.993103 1964.328125,971.894653 
	C1949.306396,1026.647339 1934.357666,1081.420166 1918.816650,1137.713135 
M1881.236694,711.668945 
	C1855.534912,699.182922 1828.005493,695.552002 1799.892700,695.448792 
	C1744.583008,695.245667 1689.272095,695.388916 1633.961670,695.388916 
	C1631.014160,695.388916 1628.066650,695.388916 1624.409546,695.388916 
	C1579.358765,861.375671 1534.468872,1026.770020 1489.374756,1192.916626 
	C1528.018677,1192.916626 1565.518799,1192.916626 1603.520386,1192.916626 
	C1620.086792,1131.969116 1636.594238,1071.238037 1653.200073,1010.145142 
	C1657.033569,1010.145142 1660.337158,1010.145081 1663.640747,1010.145081 
	C1693.961548,1010.145081 1724.282715,1010.047974 1754.603027,1010.169739 
	C1792.568726,1010.322144 1828.389526,1001.624512 1861.922241,983.957825 
	C1894.447510,966.821777 1920.569214,942.913452 1938.085327,910.155212 
	C1948.562256,890.561279 1954.504028,869.844849 1956.724365,847.643433 
	C1959.300659,821.881287 1956.228149,797.325439 1945.325806,773.900574 
	C1932.147461,745.585449 1910.590454,725.609070 1881.236694,711.668945 
M2633.763428,984.768677 
	C2621.842041,1018.020874 2619.199707,1052.006226 2626.394287,1086.580200 
	C2634.656738,1126.286987 2655.112305,1157.730225 2690.515137,1178.564819 
	C2713.873291,1192.311279 2739.524658,1198.853149 2766.245605,1201.348267 
	C2806.820557,1205.136841 2845.817383,1198.750854 2882.796875,1181.487549 
	C2893.852539,1176.326172 2904.576660,1170.327515 2914.206543,1161.985229 
	C2907.386963,1145.055542 2900.731689,1128.534302 2893.895020,1111.562256 
	C2889.705811,1114.391846 2886.487549,1116.705933 2883.136230,1118.807251 
	C2855.370361,1136.216675 2825.583008,1146.085205 2792.398926,1142.054321 
	C2767.346680,1139.011353 2748.122070,1127.026367 2736.328613,1104.075195 
	C2727.929688,1087.730225 2725.381348,1070.110840 2724.384277,1052.123169 
	C2724.097900,1046.956177 2724.340088,1041.759888 2724.340088,1035.978760 
	C2797.031494,1035.978760 2868.262695,1035.978760 2939.576660,1035.978760 
	C2947.726562,1005.364441 2949.478516,975.154114 2941.854492,944.832642 
	C2933.684082,912.335938 2916.152832,885.903870 2885.944336,870.708984 
	C2828.882080,842.006531 2772.157227,844.982422 2717.965332,878.525146 
	C2677.918701,903.312561 2650.611328,939.127014 2633.763428,984.768677 
M2582.760254,1138.126953 
	C2536.446533,1138.050537 2490.133057,1137.974609 2443.819336,1137.874634 
	C2443.589111,1137.874146 2443.309570,1137.567017 2443.142334,1137.337769 
	C2442.950195,1137.074463 2442.857910,1136.738525 2442.599854,1136.159668 
	C2514.329346,1045.100586 2586.146240,953.930725 2658.756836,861.753113 
	C2560.859131,861.753113 2464.668213,861.753113 2367.670654,861.753113 
	C2362.914062,880.045166 2358.197510,898.183472 2353.195068,917.420776 
	C2362.190186,917.420776 2369.798340,917.420837 2377.406738,917.420837 
	C2385.071045,917.420837 2392.735352,917.420837 2400.399658,917.420837 
	C2407.730713,917.420837 2415.062012,917.420837 2422.393066,917.420837 
	C2430.057373,917.420837 2437.721680,917.420837 2445.385986,917.420837 
	C2453.050293,917.420837 2460.723877,917.185059 2468.376221,917.488525 
	C2475.695068,917.778809 2483.223633,916.119934 2491.225830,918.978943 
	C2419.391602,1010.429504 2348.145264,1101.131836 2275.968994,1193.018066 
	C2379.713135,1193.018066 2481.523682,1193.018066 2584.032715,1193.018066 
	C2588.733643,1175.038330 2593.418945,1157.118530 2598.384277,1138.126953 
	C2593.175293,1138.126953 2588.927734,1138.126953 2582.760254,1138.126953 
M3053.811523,1172.952881 
	C3065.161133,1131.336426 3076.552979,1089.731445 3087.847656,1048.100098 
	C3098.048828,1010.499329 3113.375244,975.386414 3138.596191,945.283875 
	C3143.862305,938.998657 3150.255127,933.306885 3157.067383,928.742981 
	C3170.087891,920.020020 3180.917480,923.116150 3188.652100,936.831970 
	C3191.589355,942.040405 3193.992188,947.547180 3196.823730,952.818420 
	C3210.042480,977.424744 3233.198975,981.643494 3255.585205,974.076111 
	C3274.424561,967.707703 3285.695068,953.516663 3291.291748,935.189514 
	C3301.051025,903.231873 3289.619629,874.231201 3260.029053,861.031250 
	C3245.617188,854.602417 3230.403320,854.070190 3215.075439,856.858276 
	C3185.659180,862.208984 3162.604248,878.502136 3142.778076,899.906250 
	C3135.707275,907.539490 3129.482666,915.956421 3122.871826,924.015625 
	C3122.472168,923.807251 3122.072754,923.598877 3121.673340,923.390503 
	C3126.974854,903.068237 3132.276367,882.746033 3137.680908,862.028931 
	C3100.110840,862.028931 3063.623291,862.028931 3027.160645,862.028931 
	C2997.332764,972.617004 2967.668213,1082.600220 2937.912842,1192.920044 
	C2975.454102,1192.920044 3011.648682,1192.920044 3048.337402,1192.920044 
	C3050.161133,1186.593384 3051.892822,1180.585327 3053.811523,1172.952881 
M2173.616455,1371.508179 
	C2172.104736,1367.536011 2170.593018,1363.563843 2169.201660,1359.907471 
	C2154.620850,1359.907471 2140.725586,1359.907471 2126.895752,1359.907471 
	C2125.081543,1381.245117 2125.891846,1517.551636 2127.859863,1524.918335 
	C2136.356689,1524.918335 2144.884277,1524.918335 2154.311768,1524.918335 
	C2154.311768,1482.300537 2154.311768,1440.182983 2154.311768,1398.065430 
	C2154.713379,1398.037476 2155.115234,1398.009521 2155.516846,1397.981567 
	C2169.672852,1440.353027 2183.828857,1482.724609 2197.927246,1524.923462 
	C2207.562500,1524.923462 2216.429688,1524.923462 2225.739258,1524.923462 
	C2240.716064,1482.168823 2255.584717,1439.722900 2270.453369,1397.276855 
	C2270.941895,1397.366699 2271.430664,1397.456543 2271.919189,1397.546387 
	C2271.919189,1439.838745 2271.919189,1482.131226 2271.919189,1524.689819 
	C2281.685791,1524.689819 2290.754883,1524.689819 2299.989258,1524.689819 
	C2299.989258,1469.379395 2299.989258,1414.812134 2299.989258,1359.858276 
	C2285.809082,1359.858276 2271.997314,1359.858276 2257.898438,1359.858276 
	C2243.080811,1402.165283 2228.392578,1444.103149 2212.915039,1488.293945 
	C2199.433838,1448.416504 2186.693848,1410.731323 2173.616455,1371.508179 
M3160.897949,1471.928101 
	C3147.071289,1433.994385 3133.244629,1396.060791 3119.564697,1358.529541 
	C3107.073486,1358.529541 3095.841064,1358.529541 3084.315918,1358.529541 
	C3064.135010,1414.079712 3043.570068,1469.181763 3023.724854,1524.951416 
	C3035.422852,1524.951416 3045.643066,1524.951416 3056.213379,1524.951416 
	C3061.314453,1510.335327 3066.306885,1496.030884 3071.254883,1481.853760 
	C3092.013184,1481.853760 3111.910400,1481.853760 3132.312988,1481.853760 
	C3137.575684,1496.587158 3142.769531,1511.127930 3147.614502,1524.692139 
	C3159.249268,1524.692139 3169.321777,1524.692139 3180.178467,1524.692139 
	C3173.757324,1506.953369 3167.672852,1490.144409 3160.897949,1471.928101 
M2574.259521,1525.236938 
	C2574.958496,1522.186157 2576.259766,1519.136719 2576.266846,1516.084351 
	C2576.390869,1462.793701 2576.364990,1409.502686 2576.329590,1356.211670 
	C2576.327881,1353.684448 2575.937012,1351.157471 2575.750244,1348.903931 
	C2565.569824,1348.903931 2556.147705,1348.903931 2546.977539,1348.903931 
	C2546.977539,1370.035400 2546.977539,1390.379395 2546.977539,1411.606201 
	C2545.240723,1410.108643 2543.988525,1409.128174 2542.847900,1408.031372 
	C2521.751221,1387.743042 2477.532715,1391.630249 2465.388428,1429.562744 
	C2463.083496,1436.761597 2461.578613,1444.370239 2460.878906,1451.899048 
	C2459.164307,1470.343750 2460.899658,1488.366577 2469.907715,1505.082886 
	C2485.128662,1533.329468 2526.328369,1533.255615 2541.266357,1516.041748 
	C2543.062988,1513.971313 2545.382568,1512.354858 2548.034912,1510.022339 
	C2549.997803,1515.661499 2551.600586,1520.265625 2553.390381,1525.407593 
	C2559.821777,1525.407593 2566.114746,1525.407593 2574.259521,1525.236938 
M2403.898682,1503.509644 
	C2396.011230,1502.985718 2387.822266,1503.627930 2380.302002,1501.683594 
	C2366.657959,1498.155762 2358.944092,1484.766968 2360.807129,1469.096680 
	C2387.717285,1469.096680 2414.791016,1469.096680 2441.857666,1469.096680 
	C2441.857666,1461.285645 2442.091064,1454.650635 2441.816406,1448.036743 
	C2440.718506,1421.588623 2426.067871,1400.708862 2395.927002,1396.728149 
	C2370.219727,1393.333008 2342.079102,1403.702271 2332.615234,1433.249878 
	C2327.151123,1450.308472 2326.369385,1467.807617 2330.988770,1485.288208 
	C2336.229248,1505.120239 2348.394775,1518.363525 2368.298340,1524.312256 
	C2382.300049,1528.497070 2396.453125,1528.264771 2410.697266,1526.359619 
	C2419.532715,1525.177734 2428.254639,1523.535889 2434.987793,1518.484985 
	C2434.987793,1510.169189 2434.987793,1502.774414 2434.987793,1495.747070 
	C2424.808594,1498.380859 2415.228027,1500.859863 2403.898682,1503.509644 
M3369.889648,1517.146484 
	C3376.673096,1523.597412 3384.803223,1527.407959 3394.091309,1527.283447 
	C3402.646973,1527.168701 3411.726807,1527.322876 3419.580566,1524.545044 
	C3427.600342,1521.708618 3434.409180,1515.447876 3441.826172,1510.635742 
	C3443.597656,1515.324951 3445.447266,1520.220215 3447.218018,1524.907227 
	C3454.382568,1524.907227 3460.916016,1524.907227 3467.835938,1524.907227 
	C3468.032959,1522.157349 3468.333740,1519.894165 3468.336426,1517.630859 
	C3468.369141,1490.333618 3468.447754,1463.036011 3468.326172,1435.739258 
	C3468.243164,1417.157715 3459.509277,1405.391846 3441.610596,1399.544922 
	C3423.529297,1393.638428 3405.539307,1395.667725 3387.781494,1400.994141 
	C3382.280518,1402.644043 3376.160400,1403.682739 3372.282471,1408.861084 
	C3375.311279,1415.467163 3378.191895,1421.750366 3381.313232,1428.558228 
	C3384.822998,1427.300171 3387.823730,1426.002930 3390.946045,1425.149780 
	C3398.276367,1423.147461 3405.572266,1420.387573 3413.047852,1419.678711 
	C3429.873291,1418.083618 3441.202148,1425.110840 3437.827393,1445.671143 
	C3437.778076,1445.973389 3437.487061,1446.235962 3436.790283,1447.334351 
	C3432.755615,1447.334351 3428.175781,1447.258179 3423.599121,1447.348999 
	C3411.291992,1447.593140 3399.020020,1448.358887 3387.205078,1452.144653 
	C3378.550781,1454.917725 3370.506104,1458.817261 3365.354248,1466.872925 
	C3356.154053,1481.259644 3357.687012,1502.723877 3369.889648,1517.146484 
M2879.603516,1415.888062 
	C2873.518555,1405.223267 2863.612793,1400.480225 2852.172607,1397.875488 
	C2838.214600,1394.697754 2824.344238,1395.911865 2810.696777,1399.079956 
	C2802.846436,1400.902222 2794.485596,1402.379395 2788.209717,1408.646240 
	C2791.512695,1415.501465 2794.614502,1421.939331 2797.660645,1428.261719 
	C2805.343018,1425.741455 2811.802002,1422.926270 2818.553711,1421.603760 
	C2825.289062,1420.284424 2832.400879,1419.569092 2839.196289,1420.206177 
	C2847.754395,1421.008667 2853.002930,1426.483032 2853.984619,1434.058838 
	C2854.525391,1438.232178 2854.081543,1442.532959 2854.081543,1447.334473 
	C2848.211182,1447.334473 2843.250244,1447.237549 2838.294189,1447.353638 
	C2825.965820,1447.642212 2813.699463,1448.692139 2801.915039,1452.548828 
	C2789.944580,1456.466553 2780.322510,1463.548218 2777.167236,1476.289551 
	C2775.608887,1482.581665 2775.595947,1489.532227 2776.256836,1496.045532 
	C2778.122314,1514.434448 2791.819580,1526.351318 2810.268555,1527.534302 
	C2828.228516,1528.686035 2843.909424,1524.693359 2855.976074,1510.471558 
	C2856.251465,1510.146729 2857.099365,1510.307617 2857.950195,1510.211304 
	C2859.810059,1515.056274 2861.682373,1519.932983 2863.576172,1524.865723 
	C2870.560791,1524.865723 2877.052490,1524.865723 2884.357666,1524.865723 
	C2884.357666,1521.030029 2884.357666,1517.759399 2884.357666,1514.488770 
	C2884.357666,1488.824829 2884.627686,1463.156006 2884.176025,1437.500000 
	C2884.056396,1430.717773 2881.711670,1423.974731 2879.603516,1415.888062 
M3689.585449,1421.815918 
	C3700.443115,1417.332520 3711.127930,1419.659302 3721.735107,1422.775269 
	C3727.015869,1424.326538 3732.184326,1426.259399 3737.732178,1428.130493 
	C3740.904785,1420.459595 3743.774658,1413.520630 3746.583496,1406.729370 
	C3736.249268,1400.419678 3720.614746,1396.335571 3706.914795,1396.112183 
	C3695.182861,1395.920898 3683.730957,1397.326050 3672.846680,1402.048828 
	C3646.946533,1413.286987 3649.967773,1449.018799 3668.140381,1459.245361 
	C3675.067871,1463.143677 3682.316406,1466.469482 3689.406494,1470.080444 
	C3697.668457,1474.288452 3706.309814,1477.916016 3714.052734,1482.929199 
	C3720.843018,1487.325684 3719.969971,1497.146729 3712.811768,1501.076660 
	C3709.482910,1502.904053 3705.332031,1503.646606 3701.470947,1504.016479 
	C3688.626221,1505.246704 3676.345947,1502.467041 3664.387207,1497.958130 
	C3661.329346,1496.805054 3658.243164,1495.727417 3654.688965,1494.440796 
	C3654.688965,1503.244995 3654.688965,1511.407349 3654.688965,1519.787231 
	C3672.664795,1528.645508 3691.492676,1528.603882 3710.415771,1526.552002 
	C3716.577393,1525.883911 3722.924561,1524.222412 3728.520020,1521.595093 
	C3740.464355,1515.986328 3747.484619,1506.589233 3748.452393,1492.845703 
	C3749.504150,1477.907104 3745.290527,1465.761963 3731.471191,1458.601318 
	C3722.346680,1453.873169 3712.734863,1450.093262 3703.424805,1445.711182 
	C3698.631836,1443.455444 3693.669922,1441.299683 3689.410400,1438.229736 
	C3682.655762,1433.361694 3682.660400,1430.224731 3689.585449,1421.815918 
M3246.982666,1398.109375 
	C3241.503906,1398.063110 3236.025146,1398.016846 3230.369385,1397.969238 
	C3230.369385,1395.164307 3230.333008,1393.835083 3230.374512,1392.508179 
	C3230.919922,1375.104004 3238.329590,1369.055298 3255.235840,1372.216431 
	C3258.716797,1372.867310 3262.188721,1373.565063 3265.997803,1374.305908 
	C3268.601807,1366.436157 3270.957275,1359.317627 3273.390869,1351.962891 
	C3258.939209,1346.462402 3244.978027,1345.935913 3231.147217,1348.208496 
	C3212.998047,1351.190796 3203.677246,1360.275391 3201.607666,1376.976562 
	C3200.720215,1384.139771 3200.197021,1391.348022 3199.511230,1398.505493 
	C3192.932129,1401.411255 3186.650146,1404.185791 3180.730225,1406.800415 
	C3180.730225,1411.834473 3180.730225,1416.081055 3180.730225,1421.402344 
	C3187.247314,1421.402344 3193.396973,1421.402344 3200.623535,1421.402344 
	C3200.623535,1456.567505 3200.623535,1490.666138 3200.623535,1524.959961 
	C3210.945801,1524.959961 3220.139160,1524.959961 3230.451416,1524.959961 
	C3230.451416,1490.373535 3230.451416,1456.250366 3230.451416,1421.357178 
	C3240.790283,1421.357178 3250.018066,1421.357178 3259.585938,1421.357178 
	C3259.585938,1413.197144 3259.585938,1405.850342 3259.585938,1398.109375 
	C3255.510742,1398.109375 3252.205811,1398.109375 3246.982666,1398.109375 
M3292.303955,1385.273560 
	C3292.303955,1389.537354 3292.303955,1393.801270 3292.303955,1398.117310 
	C3284.987549,1401.269897 3278.384277,1404.115112 3272.008789,1406.862305 
	C3272.008789,1411.835327 3272.008789,1416.105713 3272.008789,1420.968018 
	C3278.796387,1421.288452 3285.259766,1421.593750 3292.303955,1421.926270 
	C3292.303955,1433.950928 3292.304199,1445.228394 3292.304199,1456.505859 
	C3292.304199,1468.168457 3292.277344,1479.831177 3292.311523,1491.493652 
	C3292.344238,1502.653198 3292.153809,1513.826660 3292.447510,1524.880005 
	C3303.152100,1524.880005 3312.351562,1524.880005 3322.669678,1524.880005 
	C3322.669678,1490.221436 3322.669678,1456.107056 3322.669678,1421.213135 
	C3333.015381,1421.213135 3342.242920,1421.213135 3351.864258,1421.213135 
	C3351.864258,1413.255127 3351.864258,1406.109497 3351.864258,1397.958130 
	C3341.900635,1397.958130 3332.394287,1397.958130 3322.367676,1397.958130 
	C3322.367676,1394.352783 3322.260742,1391.731323 3322.385742,1389.120850 
	C3323.019287,1375.876831 3329.106201,1370.399292 3342.138428,1371.665283 
	C3347.030762,1372.140381 3351.856445,1373.296265 3357.521484,1374.282471 
	C3359.990723,1366.954956 3362.363525,1359.913330 3365.028320,1352.005371 
	C3347.606201,1345.954102 3331.082275,1345.609863 3314.362305,1350.132446 
	C3312.165283,1350.726807 3310.106445,1351.967773 3308.102539,1353.116943 
	C3296.358398,1359.852051 3293.126465,1371.051880 3292.303955,1385.273560 
M2694.389404,1452.216919 
	C2695.461670,1448.047119 2696.265869,1443.785400 2697.657227,1439.724854 
	C2701.669434,1428.015137 2710.235840,1421.804565 2722.396240,1421.655640 
	C2728.586914,1421.579956 2734.847168,1423.271362 2740.989014,1424.573975 
	C2744.777832,1425.377441 2748.402588,1426.953735 2752.702637,1428.383057 
	C2755.790039,1420.043213 2758.611572,1412.421021 2761.625000,1404.280762 
	C2742.369873,1395.961304 2723.367188,1393.593872 2703.698975,1398.911987 
	C2683.216553,1404.450317 2670.686768,1417.874023 2665.664795,1438.365234 
	C2662.067383,1453.042480 2662.361328,1468.007202 2664.562256,1482.695190 
	C2668.239502,1507.234375 2683.583252,1522.355103 2708.314453,1526.541626 
	C2720.479004,1528.600830 2732.860840,1528.438843 2744.881348,1525.136353 
	C2749.541992,1523.855957 2753.872314,1521.373657 2757.639404,1519.747070 
	C2757.639404,1510.435791 2757.639404,1502.358398 2757.639404,1493.333130 
	C2746.180664,1498.771118 2735.486816,1502.821533 2723.409424,1502.239868 
	C2709.162354,1501.553589 2699.785889,1495.512085 2696.676025,1481.548218 
	C2694.689697,1472.630127 2695.051025,1463.189209 2694.389404,1452.216919 
M3561.819580,1398.489380 
	C3561.310791,1401.317871 3560.366943,1404.145264 3560.359131,1406.975098 
	C3560.259521,1443.572998 3560.283691,1480.171387 3560.312744,1516.769531 
	C3560.314697,1519.335938 3560.602295,1521.902100 3560.781982,1524.885010 
	C3571.171387,1524.885010 3580.957275,1524.885010 3591.706787,1524.885010 
	C3591.706787,1521.104614 3591.707031,1517.856201 3591.707031,1514.607788 
	C3591.707031,1495.643311 3592.068848,1476.670044 3591.611572,1457.716675 
	C3591.097656,1436.422852 3609.900635,1422.194092 3631.046387,1424.886719 
	C3633.203125,1425.161255 3635.425049,1424.923462 3638.078125,1424.923462 
	C3638.913818,1415.607910 3639.699951,1406.845581 3640.474121,1398.216797 
	C3629.854004,1394.483765 3619.952148,1394.893555 3611.451172,1399.623535 
	C3603.062500,1404.291016 3595.996094,1411.335205 3588.276367,1417.394409 
	C3586.941650,1411.274292 3585.547363,1404.880249 3584.078613,1398.144531 
	C3576.914062,1398.144531 3570.280029,1398.144531 3561.819580,1398.489380 
M2915.639404,1482.999756 
	C2915.639404,1496.860107 2915.639404,1510.720337 2915.639404,1524.720581 
	C2926.233398,1524.720581 2935.663818,1524.720581 2945.096436,1524.720581 
	C2945.096436,1465.621338 2945.096436,1407.242920 2945.096436,1348.746094 
	C2935.039795,1348.746094 2925.588135,1348.746094 2915.639160,1348.746094 
	C2915.639160,1393.251221 2915.639160,1437.125610 2915.639404,1482.999756 
M2638.363281,1469.000000 
	C2638.363281,1445.552612 2638.363281,1422.105225 2638.363281,1398.879150 
	C2627.578369,1398.879150 2618.158936,1398.879150 2609.020020,1398.879150 
	C2609.020020,1441.343872 2609.020020,1483.036987 2609.020020,1524.980713 
	C2618.914795,1524.980713 2628.090088,1524.980713 2638.363281,1524.980713 
	C2638.363281,1506.694092 2638.363281,1488.847046 2638.363281,1469.000000 
M3522.386963,1525.442017 
	C3524.606689,1525.181274 3526.826172,1524.920532 3529.115723,1524.651611 
	C3529.115723,1482.359009 3529.115723,1440.629028 3529.115723,1398.725342 
	C3519.081543,1398.725342 3509.635742,1398.725342 3500.221680,1398.725342 
	C3500.221680,1441.082153 3500.221680,1482.824707 3500.221680,1524.321777 
	C3501.397705,1524.819458 3501.986328,1525.278564 3502.581543,1525.287964 
	C3508.565430,1525.381836 3514.550293,1525.401733 3522.386963,1525.442017 
M2610.854248,1353.724976 
	C2609.658691,1355.669922 2608.089111,1357.479858 2607.329590,1359.582397 
	C2602.886963,1371.881958 2610.578613,1382.440918 2623.638916,1382.172852 
	C2631.675781,1382.007812 2637.547607,1378.369141 2639.276855,1372.482666 
	C2643.298096,1358.794434 2634.824219,1348.575317 2620.583252,1350.196411 
	C2617.709961,1350.523560 2614.956055,1351.902710 2610.854248,1353.724976 
M3531.171387,1369.949097 
	C3530.869385,1366.407104 3531.138428,1362.694946 3530.143799,1359.359619 
	C3528.250244,1353.009644 3522.964111,1350.285889 3514.366211,1350.083618 
	C3507.491943,1349.921875 3501.861572,1352.200684 3498.848633,1358.582886 
	C3494.906250,1366.933472 3498.588623,1377.362793 3506.188232,1380.554688 
	C3516.546631,1384.905273 3526.504639,1381.163940 3531.171387,1369.949097 
z"/>
<path fill="#0101C9" opacity="1.000000" stroke="none" 
	d="
M433.566162,892.608276 
	C443.812653,903.918579 453.234802,916.131287 464.452271,926.378540 
	C506.699249,964.971985 554.853027,995.036438 605.264282,1021.678223 
	C675.065430,1058.567505 748.122559,1087.633545 823.117676,1111.945068 
	C903.475769,1137.995361 985.283569,1158.146973 1068.603271,1172.325195 
	C1111.791382,1179.674194 1155.133057,1185.550293 1198.706543,1189.852905 
	C1209.588013,1190.927490 1220.503052,1191.659180 1232.502319,1192.638184 
	C1213.379883,1262.997437 1194.348877,1333.020386 1175.223999,1403.388794 
	C1169.140991,1403.388794 1162.859253,1403.885376 1156.679932,1403.300293 
	C1133.588257,1401.113892 1110.520752,1398.660400 1087.461426,1396.148560 
	C1034.311401,1390.358643 981.731812,1381.067139 929.515503,1369.735352 
	C867.468872,1356.270264 806.345947,1339.389038 746.235229,1318.917358 
	C681.372498,1296.827515 618.072998,1270.958862 557.348633,1239.125244 
	C510.144836,1214.379395 464.834351,1186.605225 424.222473,1151.765747 
	C398.078003,1129.337280 374.369568,1104.795898 357.723907,1074.193970 
	C343.906830,1048.792480 338.160309,1021.963684 345.044189,993.529724 
	C352.461456,962.892761 360.706726,932.452393 368.863098,901.999146 
	C377.886078,868.310242 387.217682,834.703979 396.853760,801.120972 
	C397.456635,802.156189 397.812683,803.143311 397.756531,804.106506 
	C396.287628,829.303955 404.601044,851.655579 418.051971,872.340820 
	C422.676331,879.452332 428.364197,885.872375 433.566162,892.608276 
z"/>
<path fill="#0195FF" opacity="1.000000" stroke="none" 
	d="
M1336.075928,829.878540 
	C1319.375488,808.481018 1299.239136,790.593628 1278.014160,773.944824 
	C1243.083496,746.545166 1205.368408,723.456970 1166.158569,702.711365 
	C1104.859741,670.278503 1041.003052,643.930237 975.504150,621.305542 
	C900.935852,595.548157 825.066772,574.599915 747.563538,559.981384 
	C704.210266,551.804199 660.592407,544.883301 616.920837,538.598022 
	C591.993347,535.010498 566.717957,533.841919 541.601196,531.562073 
	C540.628052,531.473755 539.675720,531.155823 537.316895,530.638611 
	C556.401550,460.435516 575.439758,390.403381 594.620117,319.848175 
	C598.488403,319.848175 601.768005,319.644897 605.016235,319.878174 
	C669.953369,324.541962 734.356445,333.065613 798.323669,345.322113 
	C895.866394,364.011871 991.016235,390.877228 1083.722778,426.492188 
	C1128.487305,443.689331 1172.162476,463.297180 1214.610596,485.564911 
	C1261.570435,510.199402 1306.454834,538.126953 1346.869019,572.688232 
	C1366.640381,589.596191 1384.821777,608.136719 1399.850342,629.523132 
	C1414.408691,650.240601 1424.874756,672.691406 1427.428711,698.181396 
	C1428.803711,711.904419 1426.185913,725.416321 1422.800537,738.588989 
	C1413.291260,775.589783 1403.310303,812.469849 1393.428223,849.374146 
	C1386.811035,874.085449 1380.044922,898.756897 1372.674072,923.004150 
	C1373.440186,903.614502 1369.853638,885.571716 1361.753296,868.478577 
	C1355.079590,854.395691 1347.474365,840.854919 1336.075928,829.878540 
z"/>
<path fill="#0202C9" opacity="1.000000" stroke="none" 
	d="
M1919.096924,1136.948730 
	C1934.357666,1081.420166 1949.306396,1026.647339 1964.328125,971.894653 
	C1978.293213,920.993103 1992.250366,870.089050 2006.373047,819.231140 
	C2016.970459,781.068848 2029.985229,743.762573 2048.002686,708.405090 
	C2062.723633,679.516663 2080.494141,652.794861 2104.024658,630.054138 
	C2130.338867,604.623291 2161.206543,587.835327 2196.861084,580.467834 
	C2230.071045,573.605469 2263.462646,573.327942 2296.543213,582.035217 
	C2321.302002,588.552063 2342.724854,600.496094 2358.748535,621.010254 
	C2379.364502,647.403442 2383.933594,691.964417 2362.058105,719.641724 
	C2342.780518,744.032349 2310.913818,753.913513 2281.649658,743.881958 
	C2263.838623,737.776611 2246.321289,717.658752 2247.368164,696.031494 
	C2247.912842,684.778137 2250.012451,674.363831 2254.478271,664.219604 
	C2255.950195,660.875854 2257.505859,657.545288 2258.650635,654.085449 
	C2263.198242,640.343872 2257.658691,629.659485 2243.715820,625.476379 
	C2228.822021,621.007935 2214.736816,624.268555 2201.307861,630.916687 
	C2185.240967,638.870850 2173.429688,651.676758 2165.366699,667.229004 
	C2158.072021,681.299561 2151.400635,696.013855 2146.943604,711.175964 
	C2132.716553,759.571533 2119.643066,808.306335 2106.162109,856.920532 
	C2105.913330,857.817627 2106.130859,858.844055 2106.130859,861.191528 
	C2120.602295,861.612915 2135.080322,861.322388 2149.542969,861.375671 
	C2164.208252,861.429688 2178.873779,861.387573 2193.539307,861.387573 
	C2208.538086,861.387573 2223.536865,861.387573 2238.535645,861.387573 
	C2253.200928,861.387573 2267.866455,861.387573 2282.531738,861.387573 
	C2297.160156,861.387573 2311.788818,861.387573 2327.792236,861.387573 
	C2297.759277,972.695557 2267.991211,1083.021240 2238.280762,1193.133789 
	C2201.083984,1193.133789 2165.124756,1193.133789 2127.699463,1193.133789 
	C2152.437500,1101.361572 2177.008057,1010.211609 2201.825928,918.142761 
	C2164.091553,918.142761 2127.321533,918.142761 2089.410889,918.142761 
	C2034.053833,1119.955078 1978.583374,1322.180542 1922.980347,1524.889648 
	C1886.440796,1524.889648 1849.918091,1524.889648 1812.349487,1524.889648 
	C1847.942627,1395.452271 1883.379639,1266.582764 1919.096924,1136.948730 
z"/>
<path fill="#0102C9" opacity="1.000000" stroke="none" 
	d="
M1881.935303,711.947327 
	C1910.590454,725.609070 1932.147461,745.585449 1945.325806,773.900574 
	C1956.228149,797.325439 1959.300659,821.881287 1956.724365,847.643433 
	C1954.504028,869.844849 1948.562256,890.561279 1938.085327,910.155212 
	C1920.569214,942.913452 1894.447510,966.821777 1861.922241,983.957825 
	C1828.389526,1001.624512 1792.568726,1010.322144 1754.603027,1010.169739 
	C1724.282715,1010.047974 1693.961548,1010.145081 1663.640747,1010.145081 
	C1660.337158,1010.145081 1657.033569,1010.145142 1653.200073,1010.145142 
	C1636.594238,1071.238037 1620.086792,1131.969116 1603.520386,1192.916626 
	C1565.518799,1192.916626 1528.018677,1192.916626 1489.374756,1192.916626 
	C1534.468872,1026.770020 1579.358765,861.375671 1624.409546,695.388916 
	C1628.066650,695.388916 1631.014160,695.388916 1633.961670,695.388916 
	C1689.272095,695.388916 1744.583008,695.245667 1799.892700,695.448792 
	C1828.005493,695.552002 1855.534912,699.182922 1881.935303,711.947327 
M1687.807983,882.792358 
	C1681.853760,905.383911 1674.904663,927.727783 1669.576294,951.398315 
	C1683.829956,951.398315 1696.792969,951.556702 1709.750854,951.364014 
	C1733.568115,951.009888 1756.562378,946.629333 1778.337402,936.661438 
	C1834.222412,911.079163 1851.426880,853.069031 1838.138184,807.359070 
	C1831.411865,784.222229 1816.462891,767.851746 1793.354126,760.265564 
	C1784.673340,757.415771 1775.253418,756.079346 1766.090210,755.605469 
	C1751.546265,754.853210 1736.934937,755.404724 1722.270874,755.404724 
	C1710.753540,797.980225 1699.496948,839.591553 1687.807983,882.792358 
z"/>
<path fill="#0101C9" opacity="1.000000" stroke="none" 
	d="
M1335.544678,830.364258 
	C1347.474365,840.854919 1355.079590,854.395691 1361.753296,868.478577 
	C1369.853638,885.571716 1373.440186,903.614502 1372.115845,923.523438 
	C1364.634277,966.164978 1341.077393,997.174438 1307.178345,1021.058167 
	C1276.049805,1042.990112 1241.002808,1056.152588 1204.431396,1065.545654 
	C1170.286621,1074.315552 1135.502441,1079.028442 1100.408203,1082.335571 
	C1057.902832,1086.341309 1015.318665,1086.301270 972.819702,1085.060547 
	C929.112915,1083.784668 885.417786,1080.560913 842.041321,1074.329346 
	C837.505676,1073.677612 832.898254,1073.525513 826.796997,1073.013306 
	C845.892883,1002.656311 864.716187,933.303467 884.156555,862.847839 
	C885.144897,861.440857 885.516113,861.136780 885.887390,860.832703 
	C908.630615,863.265747 931.337524,866.140137 954.126526,868.017639 
	C981.223938,870.250122 1008.371521,872.498474 1035.534912,873.134277 
	C1064.116211,873.803223 1092.747925,872.812866 1121.345825,872.084961 
	C1137.930908,871.662903 1154.539185,870.833130 1171.056641,869.313477 
	C1221.449585,864.677124 1271.107910,856.322327 1318.615723,838.012634 
	C1324.176025,835.869629 1329.552124,833.249084 1335.544678,830.364258 
z"/>
<path fill="#0195FF" opacity="1.000000" stroke="none" 
	d="
M886.118652,860.175415 
	C885.516113,861.136780 885.144897,861.440857 884.149658,862.105103 
	C860.762939,860.181946 838.028137,857.552124 815.229431,855.714233 
	C793.075989,853.928406 770.873169,852.440247 748.663147,851.748962 
	C718.081909,850.797058 687.429443,849.458862 656.886169,850.529724 
	C596.430969,852.649414 536.323486,858.529419 478.093933,876.335632 
	C463.506927,880.796326 449.394012,886.807495 434.314697,892.357178 
	C428.364197,885.872375 422.676331,879.452332 418.051971,872.340820 
	C404.601044,851.655579 396.287628,829.303955 397.756531,804.106506 
	C397.812683,803.143311 397.456635,802.156189 397.075684,800.315369 
	C406.506775,752.382019 434.745667,718.997375 474.663879,694.445312 
	C507.342896,674.345703 543.368042,662.717651 580.491394,654.316406 
	C609.001099,647.864563 637.906067,643.973694 667.062256,641.443542 
	C698.889587,638.681641 730.740845,637.332947 762.643250,637.731140 
	C788.228210,638.050415 813.860901,638.578552 839.363464,640.477173 
	C872.084106,642.913086 904.695923,646.811279 937.353027,650.095886 
	C938.651489,650.226440 939.932983,650.525391 942.623718,650.985535 
	C924.350464,720.897156 904.590454,790.007812 886.118652,860.175415 
z"/>
<path fill="#0201C9" opacity="1.000000" stroke="none" 
	d="
M2634.008057,984.020386 
	C2650.611328,939.127014 2677.918701,903.312561 2717.965332,878.525146 
	C2772.157227,844.982422 2828.882080,842.006531 2885.944336,870.708984 
	C2916.152832,885.903870 2933.684082,912.335938 2941.854492,944.832642 
	C2949.478516,975.154114 2947.726562,1005.364441 2939.576660,1035.978760 
	C2868.262695,1035.978760 2797.031494,1035.978760 2724.340088,1035.978760 
	C2724.340088,1041.759888 2724.097900,1046.956177 2724.384277,1052.123169 
	C2725.381348,1070.110840 2727.929688,1087.730225 2736.328613,1104.075195 
	C2748.122070,1127.026367 2767.346680,1139.011353 2792.398926,1142.054321 
	C2825.583008,1146.085205 2855.370361,1136.216675 2883.136230,1118.807251 
	C2886.487549,1116.705933 2889.705811,1114.391846 2893.895020,1111.562256 
	C2900.731689,1128.534302 2907.386963,1145.055542 2914.206543,1161.985229 
	C2904.576660,1170.327515 2893.852539,1176.326172 2882.796875,1181.487549 
	C2845.817383,1198.750854 2806.820557,1205.136841 2766.245605,1201.348267 
	C2739.524658,1198.853149 2713.873291,1192.311279 2690.515137,1178.564819 
	C2655.112305,1157.730225 2634.656738,1126.286987 2626.394287,1086.580200 
	C2619.199707,1052.006226 2621.842041,1018.020874 2634.008057,984.020386 
M2741.032715,962.162842 
	C2738.734131,969.606079 2734.024170,976.356995 2734.127686,984.671753 
	C2774.328369,984.671753 2814.066650,984.671753 2854.216309,984.671753 
	C2854.287598,970.329163 2855.294434,956.719849 2851.834717,943.298523 
	C2847.200684,925.319702 2838.004883,911.455994 2818.372314,908.073425 
	C2803.467041,905.505432 2789.344482,907.891602 2776.501709,916.737976 
	C2760.308594,927.892395 2750.005127,943.506165 2741.032715,962.162842 
z"/>
<path fill="#0203CA" opacity="1.000000" stroke="none" 
	d="
M2583.720215,1138.126953 
	C2588.927734,1138.126953 2593.175293,1138.126953 2598.384277,1138.126953 
	C2593.418945,1157.118530 2588.733643,1175.038330 2584.032715,1193.018066 
	C2481.523682,1193.018066 2379.713135,1193.018066 2275.968994,1193.018066 
	C2348.145264,1101.131836 2419.391602,1010.429504 2491.225830,918.978943 
	C2483.223633,916.119934 2475.695068,917.778809 2468.376221,917.488525 
	C2460.723877,917.185059 2453.050293,917.420837 2445.385986,917.420837 
	C2437.721680,917.420837 2430.057373,917.420837 2422.393066,917.420837 
	C2415.062012,917.420837 2407.730713,917.420837 2400.399658,917.420837 
	C2392.735352,917.420837 2385.071045,917.420837 2377.406738,917.420837 
	C2369.798340,917.420837 2362.190186,917.420776 2353.195068,917.420776 
	C2358.197510,898.183472 2362.914062,880.045166 2367.670654,861.753113 
	C2464.668213,861.753113 2560.859131,861.753113 2658.756836,861.753113 
	C2586.146240,953.930725 2514.329346,1045.100586 2442.599854,1136.159668 
	C2442.857910,1136.738525 2442.950195,1137.074463 2443.142334,1137.337769 
	C2443.309570,1137.567017 2443.589111,1137.874146 2443.819336,1137.874634 
	C2490.133057,1137.974609 2536.446533,1138.050537 2583.720215,1138.126953 
z"/>
<path fill="#0202C9" opacity="1.000000" stroke="none" 
	d="
M3053.718262,1173.765137 
	C3051.892822,1180.585327 3050.161133,1186.593384 3048.337402,1192.920044 
	C3011.648682,1192.920044 2975.454102,1192.920044 2937.912842,1192.920044 
	C2967.668213,1082.600220 2997.332764,972.617004 3027.160645,862.028931 
	C3063.623291,862.028931 3100.110840,862.028931 3137.680908,862.028931 
	C3132.276367,882.746033 3126.974854,903.068237 3121.673340,923.390503 
	C3122.072754,923.598877 3122.472168,923.807251 3122.871826,924.015625 
	C3129.482666,915.956421 3135.707275,907.539490 3142.778076,899.906250 
	C3162.604248,878.502136 3185.659180,862.208984 3215.075439,856.858276 
	C3230.403320,854.070190 3245.617188,854.602417 3260.029053,861.031250 
	C3289.619629,874.231201 3301.051025,903.231873 3291.291748,935.189514 
	C3285.695068,953.516663 3274.424561,967.707703 3255.585205,974.076111 
	C3233.198975,981.643494 3210.042480,977.424744 3196.823730,952.818420 
	C3193.992188,947.547180 3191.589355,942.040405 3188.652100,936.831970 
	C3180.917480,923.116150 3170.087891,920.020020 3157.067383,928.742981 
	C3150.255127,933.306885 3143.862305,938.998657 3138.596191,945.283875 
	C3113.375244,975.386414 3098.048828,1010.499329 3087.847656,1048.100098 
	C3076.552979,1089.731445 3065.161133,1131.336426 3053.718262,1173.765137 
z"/>
<path fill="#0405CA" opacity="1.000000" stroke="none" 
	d="
M2173.785156,1372.277222 
	C2186.693848,1410.731323 2199.433838,1448.416504 2212.915039,1488.293945 
	C2228.392578,1444.103149 2243.080811,1402.165283 2257.898438,1359.858276 
	C2271.997314,1359.858276 2285.809082,1359.858276 2299.989258,1359.858276 
	C2299.989258,1414.812134 2299.989258,1469.379395 2299.989258,1524.689819 
	C2290.754883,1524.689819 2281.685791,1524.689819 2271.919189,1524.689819 
	C2271.919189,1482.131226 2271.919189,1439.838745 2271.919189,1397.546387 
	C2271.430664,1397.456543 2270.941895,1397.366699 2270.453369,1397.276855 
	C2255.584717,1439.722900 2240.716064,1482.168823 2225.739258,1524.923462 
	C2216.429688,1524.923462 2207.562500,1524.923462 2197.927246,1524.923462 
	C2183.828857,1482.724609 2169.672852,1440.353027 2155.516846,1397.981567 
	C2155.115234,1398.009521 2154.713379,1398.037476 2154.311768,1398.065430 
	C2154.311768,1440.182983 2154.311768,1482.300537 2154.311768,1524.918335 
	C2144.884277,1524.918335 2136.356689,1524.918335 2127.859863,1524.918335 
	C2125.891846,1517.551636 2125.081543,1381.245117 2126.895752,1359.907471 
	C2140.725586,1359.907471 2154.620850,1359.907471 2169.201660,1359.907471 
	C2170.593018,1363.563843 2172.104736,1367.536011 2173.785156,1372.277222 
z"/>
<path fill="#0606CA" opacity="1.000000" stroke="none" 
	d="
M3161.243164,1472.631836 
	C3167.672852,1490.144409 3173.757324,1506.953369 3180.178467,1524.692139 
	C3169.321777,1524.692139 3159.249268,1524.692139 3147.614502,1524.692139 
	C3142.769531,1511.127930 3137.575684,1496.587158 3132.312988,1481.853760 
	C3111.910400,1481.853760 3092.013184,1481.853760 3071.254883,1481.853760 
	C3066.306885,1496.030884 3061.314453,1510.335327 3056.213379,1524.951416 
	C3045.643066,1524.951416 3035.422852,1524.951416 3023.724854,1524.951416 
	C3043.570068,1469.181763 3064.135010,1414.079712 3084.315918,1358.529541 
	C3095.841064,1358.529541 3107.073486,1358.529541 3119.564697,1358.529541 
	C3133.244629,1396.060791 3147.071289,1433.994385 3161.243164,1472.631836 
M3099.550781,1394.856689 
	C3093.074463,1414.807739 3086.597900,1434.758667 3079.887207,1455.431885 
	C3088.427490,1455.431885 3095.403809,1455.472168 3102.379395,1455.420654 
	C3109.467529,1455.368408 3116.555176,1455.225586 3124.757568,1455.106201 
	C3120.457520,1442.735840 3116.541504,1431.879517 3112.916748,1420.926758 
	C3109.392090,1410.276123 3106.165527,1399.526855 3102.254883,1387.057129 
	C3100.914795,1390.387329 3100.324463,1391.854614 3099.550781,1394.856689 
z"/>
<path fill="#0505CA" opacity="1.000000" stroke="none" 
	d="
M2573.333496,1525.322266 
	C2566.114746,1525.407593 2559.821777,1525.407593 2553.390381,1525.407593 
	C2551.600586,1520.265625 2549.997803,1515.661499 2548.034912,1510.022339 
	C2545.382568,1512.354858 2543.062988,1513.971313 2541.266357,1516.041748 
	C2526.328369,1533.255615 2485.128662,1533.329468 2469.907715,1505.082886 
	C2460.899658,1488.366577 2459.164307,1470.343750 2460.878906,1451.899048 
	C2461.578613,1444.370239 2463.083496,1436.761597 2465.388428,1429.562744 
	C2477.532715,1391.630249 2521.751221,1387.743042 2542.847900,1408.031372 
	C2543.988525,1409.128174 2545.240723,1410.108643 2546.977539,1411.606201 
	C2546.977539,1390.379395 2546.977539,1370.035400 2546.977539,1348.903931 
	C2556.147705,1348.903931 2565.569824,1348.903931 2575.750244,1348.903931 
	C2575.937012,1351.157471 2576.327881,1353.684448 2576.329590,1356.211670 
	C2576.364990,1409.502686 2576.390869,1462.793701 2576.266846,1516.084351 
	C2576.259766,1519.136719 2574.958496,1522.186157 2573.333496,1525.322266 
M2547.671143,1455.622925 
	C2546.860840,1450.413086 2546.502930,1445.082397 2545.148682,1440.017944 
	C2542.041992,1428.398560 2535.147461,1422.852661 2523.236572,1421.599609 
	C2510.788086,1420.289795 2501.500732,1424.253418 2496.843018,1435.054688 
	C2489.326172,1452.486328 2489.033203,1470.627075 2496.189941,1488.286987 
	C2500.455566,1498.812134 2510.892334,1504.120361 2521.999268,1503.033569 
	C2535.787598,1501.684204 2543.387695,1495.604736 2545.813721,1483.035767 
	C2547.422607,1474.700073 2547.166260,1466.004517 2547.671143,1455.622925 
z"/>
<path fill="#0707CA" opacity="1.000000" stroke="none" 
	d="
M2404.772949,1503.424316 
	C2415.228027,1500.859863 2424.808594,1498.380859 2434.987793,1495.747070 
	C2434.987793,1502.774414 2434.987793,1510.169189 2434.987793,1518.484985 
	C2428.254639,1523.535889 2419.532715,1525.177734 2410.697266,1526.359619 
	C2396.453125,1528.264771 2382.300049,1528.497070 2368.298340,1524.312256 
	C2348.394775,1518.363525 2336.229248,1505.120239 2330.988770,1485.288208 
	C2326.369385,1467.807617 2327.151123,1450.308472 2332.615234,1433.249878 
	C2342.079102,1403.702271 2370.219727,1393.333008 2395.927002,1396.728149 
	C2426.067871,1400.708862 2440.718506,1421.588623 2441.816406,1448.036743 
	C2442.091064,1454.650635 2441.857666,1461.285645 2441.857666,1469.096680 
	C2414.791016,1469.096680 2387.717285,1469.096680 2360.807129,1469.096680 
	C2358.944092,1484.766968 2366.657959,1498.155762 2380.302002,1501.683594 
	C2387.822266,1503.627930 2396.011230,1502.985718 2404.772949,1503.424316 
M2364.240479,1431.711792 
	C2362.651367,1436.859009 2361.062256,1442.006104 2359.354492,1447.537354 
	C2377.858887,1447.537354 2394.907471,1447.537354 2413.022949,1447.537354 
	C2411.891357,1442.627808 2411.376709,1438.348145 2409.902344,1434.429688 
	C2406.944336,1426.568115 2401.698730,1420.745483 2392.891846,1419.633667 
	C2381.777588,1418.230835 2371.738037,1420.141113 2364.240479,1431.711792 
z"/>
<path fill="#0505CA" opacity="1.000000" stroke="none" 
	d="
M3369.370117,1516.626953 
	C3357.687012,1502.723877 3356.154053,1481.259644 3365.354248,1466.872925 
	C3370.506104,1458.817261 3378.550781,1454.917725 3387.205078,1452.144653 
	C3399.020020,1448.358887 3411.291992,1447.593140 3423.599121,1447.348999 
	C3428.175781,1447.258179 3432.755615,1447.334351 3436.790283,1447.334351 
	C3437.487061,1446.235962 3437.778076,1445.973389 3437.827393,1445.671143 
	C3441.202148,1425.110840 3429.873291,1418.083618 3413.047852,1419.678711 
	C3405.572266,1420.387573 3398.276367,1423.147461 3390.946045,1425.149780 
	C3387.823730,1426.002930 3384.822998,1427.300171 3381.313232,1428.558228 
	C3378.191895,1421.750366 3375.311279,1415.467163 3372.282471,1408.861084 
	C3376.160400,1403.682739 3382.280518,1402.644043 3387.781494,1400.994141 
	C3405.539307,1395.667725 3423.529297,1393.638428 3441.610596,1399.544922 
	C3459.509277,1405.391846 3468.243164,1417.157715 3468.326172,1435.739258 
	C3468.447754,1463.036011 3468.369141,1490.333618 3468.336426,1517.630859 
	C3468.333740,1519.894165 3468.032959,1522.157349 3467.835938,1524.907227 
	C3460.916016,1524.907227 3454.382568,1524.907227 3447.218018,1524.907227 
	C3445.447266,1520.220215 3443.597656,1515.324951 3441.826172,1510.635742 
	C3434.409180,1515.447876 3427.600342,1521.708618 3419.580566,1524.545044 
	C3411.726807,1527.322876 3402.646973,1527.168701 3394.091309,1527.283447 
	C3384.803223,1527.407959 3376.673096,1523.597412 3369.370117,1516.626953 
M3394.859863,1476.132202 
	C3389.921631,1482.399048 3388.620850,1489.411377 3392.282227,1496.473145 
	C3395.976562,1503.597778 3402.968994,1504.589722 3410.258057,1504.149048 
	C3411.248047,1504.089233 3412.248291,1504.187500 3413.237549,1504.121826 
	C3426.793213,1503.222168 3439.683105,1491.795166 3438.387207,1477.493164 
	C3438.068848,1473.978394 3438.339355,1470.410278 3438.339355,1466.156128 
	C3432.403809,1466.156128 3427.404053,1465.533936 3422.621582,1466.288818 
	C3413.303223,1467.759521 3403.270020,1467.466064 3394.859863,1476.132202 
z"/>
<path fill="#0505CA" opacity="1.000000" stroke="none" 
	d="
M2879.996094,1416.550781 
	C2881.711670,1423.974731 2884.056396,1430.717773 2884.176025,1437.500000 
	C2884.627686,1463.156006 2884.357666,1488.824829 2884.357666,1514.488770 
	C2884.357666,1517.759399 2884.357666,1521.030029 2884.357666,1524.865723 
	C2877.052490,1524.865723 2870.560791,1524.865723 2863.576172,1524.865723 
	C2861.682373,1519.932983 2859.810059,1515.056274 2857.950195,1510.211304 
	C2857.099365,1510.307617 2856.251465,1510.146729 2855.976074,1510.471558 
	C2843.909424,1524.693359 2828.228516,1528.686035 2810.268555,1527.534302 
	C2791.819580,1526.351318 2778.122314,1514.434448 2776.256836,1496.045532 
	C2775.595947,1489.532227 2775.608887,1482.581665 2777.167236,1476.289551 
	C2780.322510,1463.548218 2789.944580,1456.466553 2801.915039,1452.548828 
	C2813.699463,1448.692139 2825.965820,1447.642212 2838.294189,1447.353638 
	C2843.250244,1447.237549 2848.211182,1447.334473 2854.081543,1447.334473 
	C2854.081543,1442.532959 2854.525391,1438.232178 2853.984619,1434.058838 
	C2853.002930,1426.483032 2847.754395,1421.008667 2839.196289,1420.206177 
	C2832.400879,1419.569092 2825.289062,1420.284424 2818.553711,1421.603760 
	C2811.802002,1422.926270 2805.343018,1425.741455 2797.660645,1428.261719 
	C2794.614502,1421.939331 2791.512695,1415.501465 2788.209717,1408.646240 
	C2794.485596,1402.379395 2802.846436,1400.902222 2810.696777,1399.079956 
	C2824.344238,1395.911865 2838.214600,1394.697754 2852.172607,1397.875488 
	C2863.612793,1400.480225 2873.518555,1405.223267 2879.996094,1416.550781 
M2853.168457,1486.995850 
	C2855.001709,1480.195557 2854.639404,1473.417603 2853.693604,1466.136841 
	C2848.678467,1466.136841 2844.325439,1465.659912 2840.119141,1466.243286 
	C2832.926025,1467.240845 2825.612549,1468.245117 2818.740723,1470.459595 
	C2810.973633,1472.962402 2805.613037,1482.530029 2806.356689,1490.253174 
	C2807.083252,1497.800171 2811.943115,1502.750854 2819.876709,1504.025269 
	C2834.283203,1506.339478 2844.655273,1501.401489 2853.168457,1486.995850 
z"/>
<path fill="#0706CA" opacity="1.000000" stroke="none" 
	d="
M3688.849609,1422.173950 
	C3682.660400,1430.224731 3682.655762,1433.361694 3689.410400,1438.229736 
	C3693.669922,1441.299683 3698.631836,1443.455444 3703.424805,1445.711182 
	C3712.734863,1450.093262 3722.346680,1453.873169 3731.471191,1458.601318 
	C3745.290527,1465.761963 3749.504150,1477.907104 3748.452393,1492.845703 
	C3747.484619,1506.589233 3740.464355,1515.986328 3728.520020,1521.595093 
	C3722.924561,1524.222412 3716.577393,1525.883911 3710.415771,1526.552002 
	C3691.492676,1528.603882 3672.664795,1528.645508 3654.688965,1519.787231 
	C3654.688965,1511.407349 3654.688965,1503.244995 3654.688965,1494.440796 
	C3658.243164,1495.727417 3661.329346,1496.805054 3664.387207,1497.958130 
	C3676.345947,1502.467041 3688.626221,1505.246704 3701.470947,1504.016479 
	C3705.332031,1503.646606 3709.482910,1502.904053 3712.811768,1501.076660 
	C3719.969971,1497.146729 3720.843018,1487.325684 3714.052734,1482.929199 
	C3706.309814,1477.916016 3697.668457,1474.288452 3689.406494,1470.080444 
	C3682.316406,1466.469482 3675.067871,1463.143677 3668.140381,1459.245361 
	C3649.967773,1449.018799 3646.946533,1413.286987 3672.846680,1402.048828 
	C3683.730957,1397.326050 3695.182861,1395.920898 3706.914795,1396.112183 
	C3720.614746,1396.335571 3736.249268,1400.419678 3746.583496,1406.729370 
	C3743.774658,1413.520630 3740.904785,1420.459595 3737.732178,1428.130493 
	C3732.184326,1426.259399 3727.015869,1424.326538 3721.735107,1422.775269 
	C3711.127930,1419.659302 3700.443115,1417.332520 3688.849609,1422.173950 
z"/>
<path fill="#0607CA" opacity="1.000000" stroke="none" 
	d="
M3247.941895,1398.109375 
	C3252.205811,1398.109375 3255.510742,1398.109375 3259.585938,1398.109375 
	C3259.585938,1405.850342 3259.585938,1413.197144 3259.585938,1421.357178 
	C3250.018066,1421.357178 3240.790283,1421.357178 3230.451416,1421.357178 
	C3230.451416,1456.250366 3230.451416,1490.373535 3230.451416,1524.959961 
	C3220.139160,1524.959961 3210.945801,1524.959961 3200.623535,1524.959961 
	C3200.623535,1490.666138 3200.623535,1456.567505 3200.623535,1421.402344 
	C3193.396973,1421.402344 3187.247314,1421.402344 3180.730225,1421.402344 
	C3180.730225,1416.081055 3180.730225,1411.834473 3180.730225,1406.800415 
	C3186.650146,1404.185791 3192.932129,1401.411255 3199.511230,1398.505493 
	C3200.197021,1391.348022 3200.720215,1384.139771 3201.607666,1376.976562 
	C3203.677246,1360.275391 3212.998047,1351.190796 3231.147217,1348.208496 
	C3244.978027,1345.935913 3258.939209,1346.462402 3273.390869,1351.962891 
	C3270.957275,1359.317627 3268.601807,1366.436157 3265.997803,1374.305908 
	C3262.188721,1373.565063 3258.716797,1372.867310 3255.235840,1372.216431 
	C3238.329590,1369.055298 3230.919922,1375.104004 3230.374512,1392.508179 
	C3230.333008,1393.835083 3230.369385,1395.164307 3230.369385,1397.969238 
	C3236.025146,1398.016846 3241.503906,1398.063110 3247.941895,1398.109375 
z"/>
<path fill="#0606CA" opacity="1.000000" stroke="none" 
	d="
M3292.304199,1384.381348 
	C3293.126465,1371.051880 3296.358398,1359.852051 3308.102539,1353.116943 
	C3310.106445,1351.967773 3312.165283,1350.726807 3314.362305,1350.132446 
	C3331.082275,1345.609863 3347.606201,1345.954102 3365.028320,1352.005371 
	C3362.363525,1359.913330 3359.990723,1366.954956 3357.521484,1374.282471 
	C3351.856445,1373.296265 3347.030762,1372.140381 3342.138428,1371.665283 
	C3329.106201,1370.399292 3323.019287,1375.876831 3322.385742,1389.120850 
	C3322.260742,1391.731323 3322.367676,1394.352783 3322.367676,1397.958130 
	C3332.394287,1397.958130 3341.900635,1397.958130 3351.864258,1397.958130 
	C3351.864258,1406.109497 3351.864258,1413.255127 3351.864258,1421.213135 
	C3342.242920,1421.213135 3333.015381,1421.213135 3322.669678,1421.213135 
	C3322.669678,1456.107056 3322.669678,1490.221436 3322.669678,1524.880005 
	C3312.351562,1524.880005 3303.152100,1524.880005 3292.447510,1524.880005 
	C3292.153809,1513.826660 3292.344238,1502.653198 3292.311523,1491.493652 
	C3292.277344,1479.831177 3292.304199,1468.168457 3292.304199,1456.505859 
	C3292.304199,1445.228394 3292.303955,1433.950928 3292.303955,1421.926270 
	C3285.259766,1421.593750 3278.796387,1421.288452 3272.008789,1420.968018 
	C3272.008789,1416.105713 3272.008789,1411.835327 3272.008789,1406.862305 
	C3278.384277,1404.115112 3284.987549,1401.269897 3292.303955,1398.117310 
	C3292.303955,1393.801270 3292.303955,1389.537354 3292.304199,1384.381348 
z"/>
<path fill="#0605CA" opacity="1.000000" stroke="none" 
	d="
M2694.374756,1453.099854 
	C2695.051025,1463.189209 2694.689697,1472.630127 2696.676025,1481.548218 
	C2699.785889,1495.512085 2709.162354,1501.553589 2723.409424,1502.239868 
	C2735.486816,1502.821533 2746.180664,1498.771118 2757.639404,1493.333130 
	C2757.639404,1502.358398 2757.639404,1510.435791 2757.639404,1519.747070 
	C2753.872314,1521.373657 2749.541992,1523.855957 2744.881348,1525.136353 
	C2732.860840,1528.438843 2720.479004,1528.600830 2708.314453,1526.541626 
	C2683.583252,1522.355103 2668.239502,1507.234375 2664.562256,1482.695190 
	C2662.361328,1468.007202 2662.067383,1453.042480 2665.664795,1438.365234 
	C2670.686768,1417.874023 2683.216553,1404.450317 2703.698975,1398.911987 
	C2723.367188,1393.593872 2742.369873,1395.961304 2761.625000,1404.280762 
	C2758.611572,1412.421021 2755.790039,1420.043213 2752.702637,1428.383057 
	C2748.402588,1426.953735 2744.777832,1425.377441 2740.989014,1424.573975 
	C2734.847168,1423.271362 2728.586914,1421.579956 2722.396240,1421.655640 
	C2710.235840,1421.804565 2701.669434,1428.015137 2697.657227,1439.724854 
	C2696.265869,1443.785400 2695.461670,1448.047119 2694.374756,1453.099854 
z"/>
<path fill="#0808CB" opacity="1.000000" stroke="none" 
	d="
M3562.732910,1398.316895 
	C3570.280029,1398.144531 3576.914062,1398.144531 3584.078613,1398.144531 
	C3585.547363,1404.880249 3586.941650,1411.274292 3588.276367,1417.394409 
	C3595.996094,1411.335205 3603.062500,1404.291016 3611.451172,1399.623535 
	C3619.952148,1394.893555 3629.854004,1394.483765 3640.474121,1398.216797 
	C3639.699951,1406.845581 3638.913818,1415.607910 3638.078125,1424.923462 
	C3635.425049,1424.923462 3633.203125,1425.161255 3631.046387,1424.886719 
	C3609.900635,1422.194092 3591.097656,1436.422852 3591.611572,1457.716675 
	C3592.068848,1476.670044 3591.707031,1495.643311 3591.707031,1514.607788 
	C3591.707031,1517.856201 3591.706787,1521.104614 3591.706787,1524.885010 
	C3580.957275,1524.885010 3571.171387,1524.885010 3560.781982,1524.885010 
	C3560.602295,1521.902100 3560.314697,1519.335938 3560.312744,1516.769531 
	C3560.283691,1480.171387 3560.259521,1443.572998 3560.359131,1406.975098 
	C3560.366943,1404.145264 3561.310791,1401.317871 3562.732910,1398.316895 
z"/>
<path fill="#0606CA" opacity="1.000000" stroke="none" 
	d="
M2915.639160,1481.999878 
	C2915.639160,1437.125610 2915.639160,1393.251221 2915.639160,1348.746094 
	C2925.588135,1348.746094 2935.039795,1348.746094 2945.096436,1348.746094 
	C2945.096436,1407.242920 2945.096436,1465.621338 2945.096436,1524.720581 
	C2935.663818,1524.720581 2926.233398,1524.720581 2915.639404,1524.720581 
	C2915.639404,1510.720337 2915.639404,1496.860107 2915.639160,1481.999878 
z"/>
<path fill="#0606CA" opacity="1.000000" stroke="none" 
	d="
M2638.363281,1470.000000 
	C2638.363281,1488.847046 2638.363281,1506.694092 2638.363281,1524.980713 
	C2628.090088,1524.980713 2618.914795,1524.980713 2609.020020,1524.980713 
	C2609.020020,1483.036987 2609.020020,1441.343872 2609.020020,1398.879150 
	C2618.158936,1398.879150 2627.578369,1398.879150 2638.363281,1398.879150 
	C2638.363281,1422.105225 2638.363281,1445.552612 2638.363281,1470.000000 
z"/>
<path fill="#0606CA" opacity="1.000000" stroke="none" 
	d="
M3521.460938,1525.442139 
	C3514.550293,1525.401733 3508.565430,1525.381836 3502.581543,1525.287964 
	C3501.986328,1525.278564 3501.397705,1524.819458 3500.221680,1524.321777 
	C3500.221680,1482.824707 3500.221680,1441.082153 3500.221680,1398.725342 
	C3509.635742,1398.725342 3519.081543,1398.725342 3529.115723,1398.725342 
	C3529.115723,1440.629028 3529.115723,1482.359009 3529.115723,1524.651611 
	C3526.826172,1524.920532 3524.606689,1525.181274 3521.460938,1525.442139 
z"/>
<path fill="#0A09CB" opacity="1.000000" stroke="none" 
	d="
M2611.500732,1353.260864 
	C2614.956055,1351.902710 2617.709961,1350.523560 2620.583252,1350.196411 
	C2634.824219,1348.575317 2643.298096,1358.794434 2639.276855,1372.482666 
	C2637.547607,1378.369141 2631.675781,1382.007812 2623.638916,1382.172852 
	C2610.578613,1382.440918 2602.886963,1371.881958 2607.329590,1359.582397 
	C2608.089111,1357.479858 2609.658691,1355.669922 2611.500732,1353.260864 
z"/>
<path fill="#0806CA" opacity="1.000000" stroke="none" 
	d="
M3530.859863,1370.675903 
	C3526.504639,1381.163940 3516.546631,1384.905273 3506.188232,1380.554688 
	C3498.588623,1377.362793 3494.906250,1366.933472 3498.848633,1358.582886 
	C3501.861572,1352.200684 3507.491943,1349.921875 3514.366211,1350.083618 
	C3522.964111,1350.285889 3528.250244,1353.009644 3530.143799,1359.359619 
	C3531.138428,1362.694946 3530.869385,1366.407104 3530.859863,1370.675903 
z"/>
<path fill="#FDFDFF" opacity="1.000000" stroke="none" 
	d="
M1688.024170,881.997620 
	C1699.496948,839.591553 1710.753540,797.980225 1722.270874,755.404724 
	C1736.934937,755.404724 1751.546265,754.853210 1766.090210,755.605469 
	C1775.253418,756.079346 1784.673340,757.415771 1793.354126,760.265564 
	C1816.462891,767.851746 1831.411865,784.222229 1838.138184,807.359070 
	C1851.426880,853.069031 1834.222412,911.079163 1778.337402,936.661438 
	C1756.562378,946.629333 1733.568115,951.009888 1709.750854,951.364014 
	C1696.792969,951.556702 1683.829956,951.398315 1669.576294,951.398315 
	C1674.904663,927.727783 1681.853760,905.383911 1688.024170,881.997620 
z"/>
<path fill="#FBFAFE" opacity="1.000000" stroke="none" 
	d="
M2741.393555,961.494141 
	C2750.005127,943.506165 2760.308594,927.892395 2776.501709,916.737976 
	C2789.344482,907.891602 2803.467041,905.505432 2818.372314,908.073425 
	C2838.004883,911.455994 2847.200684,925.319702 2851.834717,943.298523 
	C2855.294434,956.719849 2854.287598,970.329163 2854.216309,984.671753 
	C2814.066650,984.671753 2774.328369,984.671753 2734.127686,984.671753 
	C2734.024170,976.356995 2738.734131,969.606079 2741.393555,961.494141 
z"/>
<path fill="#F5F3FC" opacity="1.000000" stroke="none" 
	d="
M3099.642334,1394.089233 
	C3100.324463,1391.854614 3100.914795,1390.387329 3102.254883,1387.057129 
	C3106.165527,1399.526855 3109.392090,1410.276123 3112.916748,1420.926758 
	C3116.541504,1431.879517 3120.457520,1442.735840 3124.757568,1455.106201 
	C3116.555176,1455.225586 3109.467529,1455.368408 3102.379395,1455.420654 
	C3095.403809,1455.472168 3088.427490,1455.431885 3079.887207,1455.431885 
	C3086.597900,1434.758667 3093.074463,1414.807739 3099.642334,1394.089233 
z"/>
<path fill="#FBFCFE" opacity="1.000000" stroke="none" 
	d="
M2547.708008,1456.546387 
	C2547.166260,1466.004517 2547.422607,1474.700073 2545.813721,1483.035767 
	C2543.387695,1495.604736 2535.787598,1501.684204 2521.999268,1503.033569 
	C2510.892334,1504.120361 2500.455566,1498.812134 2496.189941,1488.286987 
	C2489.033203,1470.627075 2489.326172,1452.486328 2496.843018,1435.054688 
	C2501.500732,1424.253418 2510.788086,1420.289795 2523.236572,1421.599609 
	C2535.147461,1422.852661 2542.041992,1428.398560 2545.148682,1440.017944 
	C2546.502930,1445.082397 2546.860840,1450.413086 2547.708008,1456.546387 
z"/>
<path fill="#F9FCFE" opacity="1.000000" stroke="none" 
	d="
M2364.640625,1431.060547 
	C2371.738037,1420.141113 2381.777588,1418.230835 2392.891846,1419.633667 
	C2401.698730,1420.745483 2406.944336,1426.568115 2409.902344,1434.429688 
	C2411.376709,1438.348145 2411.891357,1442.627808 2413.022949,1447.537354 
	C2394.907471,1447.537354 2377.858887,1447.537354 2359.354492,1447.537354 
	C2361.062256,1442.006104 2362.651367,1436.859009 2364.640625,1431.060547 
z"/>
<path fill="#F8FAFE" opacity="1.000000" stroke="none" 
	d="
M3395.362549,1475.553223 
	C3403.270020,1467.466064 3413.303223,1467.759521 3422.621582,1466.288818 
	C3427.404053,1465.533936 3432.403809,1466.156128 3438.339355,1466.156128 
	C3438.339355,1470.410278 3438.068848,1473.978394 3438.387207,1477.493164 
	C3439.683105,1491.795166 3426.793213,1503.222168 3413.237549,1504.121826 
	C3412.248291,1504.187500 3411.248047,1504.089233 3410.258057,1504.149048 
	C3402.968994,1504.589722 3395.976562,1503.597778 3392.282227,1496.473145 
	C3388.620850,1489.411377 3389.921631,1482.399048 3395.362549,1475.553223 
z"/>
<path fill="#F8FAFE" opacity="1.000000" stroke="none" 
	d="
M2852.840332,1487.741943 
	C2844.655273,1501.401489 2834.283203,1506.339478 2819.876709,1504.025269 
	C2811.943115,1502.750854 2807.083252,1497.800171 2806.356689,1490.253174 
	C2805.613037,1482.530029 2810.973633,1472.962402 2818.740723,1470.459595 
	C2825.612549,1468.245117 2832.926025,1467.240845 2840.119141,1466.243286 
	C2844.325439,1465.659912 2848.678467,1466.136841 2853.693604,1466.136841 
	C2854.639404,1473.417603 2855.001709,1480.195557 2852.840332,1487.741943 
z"/>
</svg>